<?xml version="1.0" encoding="UTF-8"?>
<svg id="Capa_1" data-name="Capa 1" xmlns="http://www.w3.org/2000/svg" viewBox="0 0 500 500" fill="#fff">
  <defs>
  </defs>
  <path d="m324.96,209.88c-.21-.75-.54-1.47-1.02-2.09-1.69-1.69-4.39-2.18-6.7-2.21-2.1-.03-3.44.09-4.33-2.26-.1-.29-.21-.57-.32-.85-.19-.49-.37-.99-.45-1.51-.29-2.09.85-4.41,1.6-6.29,1.08-2.71.52-3.78-.29-6.49-.6-2-1.04-3.6-1.25-5.71-.02-.22-.04-.44-.01-.65.13-.94,1.1-1.48,1.87-2.03,3.28-2.3,3.33-6.18,3.19-9.83-.1-2.68-.98-5.27-2.57-7.43-2.78-3.77-7.05-6.31-11.7-6.53-.87-.04-1.79.05-2.54.51-2.18,1.36-.53,4.88-1.86,6.8-.59.86-1.2,1.73-2.02,2.38-1.89,1.52-5.13.79-7.4.79h-44.84c-2.69,0-7.27-1.06-9.32,1.26-1.65,1.87-.87,4.85-2.38,6.75-1.38,1.73-3.45,1.63-5.46,1.53-2.47-.13-4.7-2.83-4.87-5.32-.15-2.33-.28-4.64-1.46-6.72-2.23-3.96-8.59-4.48-10.83-.18-.47.9-.78,1.99-1.62,2.64-1.93,1.5-4.34.47-5.49-1.46-1.25-2.09-2.57-3.38-5.04-4.03-2.42-.64-5.06.56-6.45,2.64-1.2,1.8-1.59,4.76-3.33,6.07-1.21.92-2.76,1.42-4.22,1.36-2.7-.12-4.04-1.4-5.47-3.58-.29-.45-.58-.91-.9-1.39-1.51-2.19-3.4-3.95-6.18-4.11-.45-.03-.91-.04-1.36.04-.77.13-1.49.52-2.14.95-7.43,4.97-4.56,12.31,1.91,16.5,5.2,3.37,19.01,6.52,23.14.15,1.2-1.85,4.21-1.23,5.68-.07,5.2,4.09.18,11.2-1.47,15.41-1.29,3.29-3.04,6.8-3.57,10.4-.96,8.2,3.34,13.92,7.07,20.75,2.04,4.07-1.63,6.04-4.37,8.99-3.3,3.54-3.48,9.7-1.99,14.06,1.6,4.67,10.06,8.02,6.5,13.74-2.1,3.37-4.9,5.83-6.28,9.63-1.53,4.21-1.61,8.57-1.06,12.99.48,3.86,2.71,7.43,2.79,11.37.05,2.67-1.45,4.93-4.21,5.08-2.76.14-3.64-2.62-5.48-4.02-.93-.71-2.08-1.1-3.21-1.35-1.44-.31-2.93-.4-4.4-.31-10.68.62-14.31,10.59-12.07,20.72.7,3.18,2.81,5.5,6.1,5.94,2.12.28,5.2.03,7.11-1.03.55-.31.81-.84,1.06-1.44.6-1.49.19-3.82.19-5.43s-.02-3.41.48-4.91c.2-.59.48-1.17.91-1.62.66-.68,1.34-1.01,2.26-1.01,4.98,0,4.47,4.04,4.47,4.04v6.83c0,.86-.24,2.07.35,2.77.49.59,2.4.26,3.13.26h3.74c1.23,0,2.53.21,3.73-.08,1.27-.31.66-1.37.73-2.44.18-2.85,2.11-4.49,4.94-4.49,2.07,0,3.97.85,4.97,2.72.53.98.46,2.23.84,3.27.5,1.38,1.35,1.21,2.64,1.21h3.31c.72,0,2.13.27,2.47-.6.27-.7-.08-1.68-.03-2.44.03-.69.17-1.38.49-1.99.88-1.68,2.81-2.16,4.58-2.16,2.01,0,4.11.62,5.07,2.53.55,1.11-.08,3.56,1.02,4.34.59.42,2.33.13,3.08.13h21.43c.71,0,1.55.16,2.12-.36.79-.7.4-2.25.35-3.17-.12-2.08-.34-4.18-.79-6.21-.47-2.14-1.19-4.51-2.76-6.12-1.66-1.71-4.66-1.18-6.9-1.18s-4.68-.06-7.02,0c-1.93.05-4.93,1.15-6.77.7-5.34-1.31-3.55-9.03-3.11-12.8.63-5.35.59-12-2.02-16.86-2.18-4.06-9.11-9.26-5.49-14.33,1.66-2.32,4.81-3.33,7.05-4.96,2.7-1.96,5.3-4.2,8.72-4.73,2.16-.34,4.36-.37,6.53-.16,2.18.21,4.44.6,6.48,1.42,11.74,5.15,13.18,15.45,7.32,14.63-5.86-.82-9.84-.77-11.32,4.07-.89,2.93.8,5.83,3.1,7.5,4.33,3.13,9.79,2.16,13.71-1.1,9.57-7.98,4.38-21.85-2.95-25.17-1.57-.71-3.8-1.87-4.05-3.8-.35-2.54,2.21-3.24,3.96-4.11,1.6-.8,3.1-1.8,4.4-3.03,2.21-2.09,3.74-4.8,4.43-7.76,1.1-4.7.34-10.5-2.65-14.41-.28-.37-.59-.73-.93-1.04-4.89-4.52-15.94-4.77-16,2.97-.02,2.51,1.23,4.53,3.66,5.28.99.31,2.05.4,3.08.4.44,0,.9,0,1.34-.08.53-.08,1.03-.35,1.56-.41.71-.07.64.01.84.53.31.8.65,1.77.88,2.64.4,1.55.27,3.16-.33,4.64-.96,2.36-2.93,4.26-5.01,5.66-.88.6-1.97.6-3.04.6h-7.27c-3.03,0-7.57,1.46-10.22.29-3.67-1.63-4.96-5.65-7.48-8.46-1.99-2.22-3.38-3.03-2.93-6.19.73-5.2,4.82-9.19,6.44-14.03,2.3-6.88,1.67-13.85-.56-20.66-.49-1.5-1.6-2.88-1.47-4.46.51-6.12,8.94-5.18,12.74-5.18h28.53c4.24,0,8.15,1.9,10.64,5.36,1.21,1.69,2.15,3.74,2.53,5.79.54,2.85.77,10,4.82,10.12,3.79.1,3.93-3.93,4.54-6.55.56-2.38.23-5.08.23-7.5,0-.56-.24-1.92.12-2.32,1.26-1.38,7.13-.92,8.03.64.93,1.61.93,4.2.66,5.98-.23,1.51-.75,2.95-1.26,4.38-1.08,2.99-2.58,6.02-2.66,9.27-.05,1.93.47,3.64,1.51,5.26,1.57,2.47,5.8,4.98,8.69,4.98h6.54c1.4,0,2.71-.35,4.12-.38.6-.01,1.22-.07,1.74-.36,2.1-1.19,3.29-4.48,2.64-6.69Zm-114.43,26.31c4.49,0,8.13,3.64,8.13,8.13s-3.64,8.13-8.13,8.13-8.13-3.64-8.13-8.13,3.64-8.13,8.13-8.13Zm7.41,41.69c-1.86,1.46-3.92,1.19-4.74,3.55-.81,2.33-.51,5.05-.05,7.4.66,3.38,1.99,6.82,3.89,9.82-.21-.34-3.69-.87-4.32-1.14-1.21-.5-2.32-1.16-3.3-1.97-1.98-1.62-3.28-3.76-4.11-6.02-1.72-4.68-1.8-10.03-1.1-14.8.48-3.24,2.42-5.99,5.62-6.98,2.83-.87,6.26-.61,8.49,1.44,2.36,2.17,2.26,6.63-.38,8.68Zm1.49-59.13c-2.23,2.05-5.66,2.32-8.49,1.45-3.2-.99-5.15-3.74-5.63-6.98-.7-4.76-.62-10.11,1.1-14.8.83-2.25,2.13-4.4,4.1-6.02.98-.81,2.1-1.46,3.3-1.97.64-.27,4.12-.8,4.33-1.13-1.9,2.99-3.23,6.44-3.89,9.81-.46,2.35-.76,5.07.05,7.4.82,2.36,2.87,2.09,4.74,3.55,2.63,2.05,2.73,6.52.38,8.68Z"/>
  <path class="cls-1" d="m410.57,375.05v.04l.06-.04h-.06Zm27.16-173.21c-.21-.48-.41-.97-.62-1.45-3.82-5-4.48-11.13-6.2-16.89-.21-1.09-.41-2.15-.62-3.22-3.76-4.42-3.28-10.51-6.05-15.37-2.23-3.94-3.61-8.43-8.43-10.12-6.18-2.15-5.47-5.43-1.59-9.29-.08-1.63-.17-3.24-.27-4.87-3.94-5.91-7.85-11.83-11.79-17.74-.29-.45-.99-.93-.93-1.28,2.99-15.2-9.29-21.11-17.78-29.33-1.38-1.34-.74-3.02-.58-4.59-.12-2.19-.23-4.4-.35-6.59-1.94-1.78-3.26-3.84-2.93-6.63-1.34-1.78-2.7-3.59-4.03-5.37-3.39-3.24-8.53-4.42-10.7-9.07-4.87-.7-6.88-4.27-8.36-8.36-2.58-1.73-5.37-3.3-5.58-6.94-2.66-2.31-5.33-4.61-7.99-6.94-9.79.68-15.68-6.9-23.25-10.95-.52-.16-1.03-.33-1.55-.48-7.75-1.43-15.96-.93-23.01-5.37-.52.29-1.03.33-1.51.16-5.97.1-10.64-2.89-15.12-6.32-1.1,0-2.21-.02-3.32-.04-4.96-.37-10.31,2.11-14.75-2.07-4.44.64-8.88,1.28-13.34,1.9-2.29,2.35-5.31,2.04-8.18,2.21-1.16,2.54-3.26,1.2-5.04,1.24-1.65-.02-3.3-.02-4.94-.04-4.05,3.08-9.23,1.98-13.65,3.8-14.31,5.89-31.43,2.71-44.13,14.5-4.21,3.92-9.09,9.09-16.73,6.96-2.75-.76-2.54,3.72-4.73,4.79-.33,4.11-2.25,6.55-6.69,6.28-13.59.68-21.95,6.94-21.33,17.49.41,7.35-2.38,12.6-6.69,17.7-.47.54-.91,1.07-1.38,1.61-.66,1.57-1.82,2.64-3.41,3.26-6.2,5.45-9.89,14.25-19.72,14.93-3.59,8.34-.12,18.03-4.42,25.94-3.53,6.51-4.48,13.11-4.48,20.14.5,3.86-1.63,6.28-4.48,8.34-3.86,15.22-10.02,29.97-8.74,46.2.14,1.73-.78,3.64-1.51,5.33-9.05,20.4-3.47,41.41-2.73,62.23,3.16,1.92,4.34,4.83,4.11,8.41.29,1.32.93,2.75-1.01,3.39-1.43,1.92-2.29,3.97-1.63,6.44,2.29.97,3.39,2.73,2.99,5.2-.99,5.89.43,11.36,3.8,16.01,3.57,4.91,3.64,10.49,2.73,15.57-1.34,7.48-3.82,14.5,4.34,19.68.64.41.68,2,.68,3.04,0,12.08,4.65,21.68,14.95,28.32,3.76,2,2.56,5.14,1.9,8.16-.91,10.43,4.4,19.48,6.51,29.26,2.42,1.63,4.89,3.24,4.98,6.63,4.77,3.08,4.85,8.49,6.49,13.13,2.15,5.99,4.9,9.5,12.5,10.9,12.06,2.23,23.89,7.23,34.88,12.5,12.1,5.82,21.25,16.98,33.66,22.97,3.26.76,6.51,1.51,9.77,2.27,4.96,0,9.93,0,14.89-.02,10.24-.47,20.36-2.09,30.69-2.21,9.56-.12,19.15,4.79,28.67,0,2.64-3.49,5.55-6.22,10.41-6.3,10.93-.17,19.64-5.87,26.7-13.32,4.05-4.27,7.99-6.28,13.53-6.51,9.52-.41,17.93-4.71,21.69-12.97,5.41-11.9,14.56-19.93,23.59-28.4.17-.52.33-1.05.5-1.57-.27-2.73.91-4.83,2.85-6.61.58-3.39,1.55-6.55,4.98-8.24-.19-2.4,1.28-3.08,3.3-3.26l.02-.04c.06-.99.37-1.69,1.55-1.28.54-.14,1.09-.27,1.63-.43.17-.95.54-1.65,1.69-1.32,1.11-.66,2.21-1.34,3.32-2,1.3-1.98,2.85-3.72,5.06-4.75l.1-.1c.87-2.35,2.77-3.78,4.73-5.16.27-3.14,2.21-5.54,3.64-8.16-.29-1.11.21-1.63,1.26-1.71.25-2.31.39-4.65,2.09-6.49,0-.56-.02-1.12-.04-1.69,1.51-3.74,1.43-7.66,1.34-11.59-.17-5.74.27-11.38,3.18-16.54.25-1.3-.1-2.93,1.86-3.22,2.52-4.09,6.75-6.92,8.49-11.57,0-.56-.02-1.1-.02-1.67-.02-4.11-2.19-8.8,3.04-11.52.12-.56.25-1.14.37-1.71.52-1.09,1.07-2.19,1.59-3.28,0-.56-.02-1.12-.04-1.69v-3.3c-1.14-14.5,1.22-28.33,7.83-41.35.12-6.59.25-13.18.39-19.78.02-1.65.04-3.3.08-4.96.52-2.19,1.07-4.4,1.61-6.59-1.53-8.76-3.06-17.51-4.61-26.27ZM291.59,36.01c3.22-3.06,6.59-.06,9.56,1.57.72.39,1.47.74,2.04,1.32.81.83,1.11,2.13.74,3.22-.35,1.11-1.36,1.98-2.5,2.17-.74.14-1.49-.02-2.25-.16-.85-.16-1.71-.31-2.54-.47-2.27-.41-4.83-1.05-5.87-3.08-.74-1.49-.37-3.43.83-4.58Zm-130.22,18.11c.16-.48,1.63-1.11,1.9-.89.76.56,1.14,1.18,1.3,1.84.31,1.24-.17,2.62-.54,4.03-.48-.23-.89-.47-1.24-.72-1.67-1.16-1.98-2.6-1.42-4.27Zm-31.52,18.03c3.55-3.02,9.15-6.09,9.75,1.4.19,2.38-.7,4.71-1.76,6.84-.54,1.07-1.22,2.21-2.37,2.58-.87.27-1.84.04-2.66-.37-1.74-.89-2.99-2.5-4.17-4.07-.54-.72-1.1-1.47-1.2-2.37-.19-1.61,1.16-2.95,2.4-4.01Zm-15.16,36.55c.45-1.07,1.14-2.06,2.13-2.62.83-.48,1.73-.54,2.64-.33.78.19,1.18.52,1.76,1.07,1.22,1.16,1.49,2.75,1.2,4.4-.39,2.04-1.59,3.8-2.75,5.51-.6.87-1.45,1.84-2.46,1.59-.43-.12-.76-.43-1.05-.76-2.11-2.37-2.71-5.95-1.47-8.86Zm-29.24,58.82c.58-.23,1.18-.35,1.8-.41.58-.06.83.14,1.34.29.08.02.12.08.17.12.06.02.14.02.19.04.06.02.12.08.16.12.78.7,1.36,1.65,2,2.46.66.87,1.3,1.8,1.61,2.89.45,1.51.14,3.22-.78,4.5-.31.43-.74.83-1.26.89-.47.06-.93-.17-1.34-.43-1.86-1.09-3.57-2.46-5-4.07-.78-.83-1.49-1.82-1.55-2.97-.06-1.53,1.2-2.89,2.66-3.43Zm-6.49,22.9c.54-.56,1.18-.99,1.9-1.28.33-.14.7-.25,1.07-.31.37-.08.97-.02,1.32.16.41.19.68.58,1.12.76.08.04.17.06.23.1.64.37.99.91,1.38,1.55.58.93,1.01,2,1.22,3.08.17.95.19,1.98-.19,2.87-.37.89-1.22,1.63-2.19,1.67-.68.04-1.34-.27-1.96-.58-1.71-.81-3.43-1.65-5.14-2.46-.62-1.9-.12-4.11,1.24-5.54Zm-1.16,63.49c-.29,1.24-.87,2.4-1.32,3.59-.47,1.28-.97,2.79-2.25,3.26-1.03.37-2.13-.12-3.06-.66-1.01-.6-1.94-1.32-2.66-2.23-.45-.54-.81-1.32-.47-1.96.16-.29.45-.5.68-.74.78-.81.87-2.04,1.28-3.08.39-1.05,1.45-2.09,2.48-1.67.62-.35.87-.72,1.47-1.11,1.09-.68,2.62-.16,3.35.91.72,1.05.78,2.44.48,3.68Zm5.33-39.34c-1.24.5-2.73.17-3.78-.66s-1.67-2.11-1.9-3.43c-.25-1.43-.02-3.02.93-4.13.87-1.01,2.46-1.2,3.7-1.45.25-.06.52-.12.78-.16.47-.1.93-.25,1.36,0,.43.23.85.56,1.18.91.66.68,1.09,1.59,1.2,2.52.19,1.69-.48,3.37-1.51,4.73-.52.7-1.16,1.34-1.96,1.67Zm10.93,143.97c-.31.45-.66.95-1.2,1.05-.35.06-.68-.06-1.01-.19-2.23-.89-4.19-2.42-5.58-4.38-.72-.97-1.3-2.09-1.4-3.3-.1-1.22.35-2.52,1.34-3.22.85-.58,2.04-.68,3.04-.5.39.06.54.16.89.29.33.14.91.41,1.2.64.72.6,1.88.7,2.7,1.28.79.56,1.47,1.3,1.78,2.25.68,2.07-.58,4.25-1.76,6.09Zm-4.23-20.78c6.17-.64,11.07-.83,11.73,6.9-5.02-.68-7.89-3.78-11.73-6.9Zm275.98,67.82c-.45,1.24-1.14,1.9-1.96,2.25-2.44,1.05-6.05-.6-7.99,2.19,1.76-3.76,3.72-7.1,8.28-6.57.25.04.48.08.68.17.93.33,1.28,1.14.99,1.96Zm32.59-136.16c-.35,13.32-2.56,26.19-8.94,38.1-.76,5.58-1.4,11.21-3.76,16.42,1.2,12.04-6.22,21.42-11.09,31.06-3.92,7.75-5.95,16.63-11.88,23.36-1.01,1.16-2.02,2.33-3.02,3.49-6.92,6.03-8.05,15.53-13.67,22.45-10.51,12.95-21.44,25.36-36.06,33.91-5.58,5.39-12.58,7.87-19.91,9.65-12.16,5.12-24.47,9.4-37.98,7.89-.56.02-1.12.04-1.69.06h-8.28c-1.09,0-2.19,0-3.3.02-12.27.47-23.71-2.85-34.78-7.79-.52-.16-1.05-.29-1.57-.45-2.04.76-3.26-.7-4.63-1.71-.66-.41-1.32-.79-1.98-1.18-5.08-.91-7.25-5.37-10.45-8.59-.72.02-1.05-.31-1.01-1.03-1.09-.58-2.99,0-3-2.13-.7-1.07-1.4-2.11-2.09-3.18-7.6-7.46-18.75-10.49-24.74-19.93-5.23-6.84-12.58-11.9-16.56-19.79-1.11-.02-1.61-.54-1.34-1.67-.99-1.49-2.35-2.85-2.19-4.89-2.73-4.96-5.49-9.93-8.22-14.89-4.3-1.82-6.4-5.12-6.49-9.75-1.11-.16-1.57-.72-1.16-1.84-.16-1.11-.31-2.21-.47-3.32-1.98-.5-1.49-1.98-1.3-3.33-.17-2.17-.37-4.32-.56-6.49-1.9-.62-1.07-2.21-1.24-3.45-2.77-.91-.87-3.39-1.67-4.96-7.17-8.61-8.24-19.56-11.48-29.7-.02-.54-.02-1.11-.04-1.67-.87-1.53-2.56-2.83-1.34-4.92-.19-1.03-.39-2.04-.58-3.04-1.03-.23-1.59-.76-1.11-1.88-.19-1.65-.37-3.3-.54-4.96-2.87-2.37-1.2-5.47-1.34-8.3-.02-2.19-.04-4.4-.06-6.59-3.01-9.21-1.43-18.73-1.86-28.11.1-4.4.17-8.8.27-13.2,0-2.19.02-4.4.02-6.61.02-2.19.04-4.4.06-6.59,1.51-4.3.48-9.23,3.33-13.18-.04-.56-.06-1.12-.08-1.69-.25-1.4-.56-2.83,1.38-3.32.12-2.75.23-5.51.35-8.26-.89-2.11.97-3.32,1.67-4.91-.02-.56-.06-1.14-.08-1.71,1.45-7.74,1.42-15.78,4.42-23.23.21-1.09.45-2.17.66-3.24-.35-1.14.19-1.59,1.26-1.63.79-1.55-.97-3.99,1.69-4.92.21-1.26-.48-2.97,1.59-3.33,1.3-3.99,2.31-8.12,4.79-11.63,2.11-6.71,5.8-12.54,9.95-18.15,3.41-8.74,9.29-15.61,16.44-21.5.14-2.38,1.22-4.11,3.51-4.98,1.24-2.17,2.46-4.36,3.7-6.53-.23-1.09.23-1.57,1.32-1.49.6-.58,1.18-1.16,1.76-1.73,2.42-4.67,8.16-4.87,11.38-8.43,4.32-5.89,9.54-10.62,16.54-13.11.02-1.11.5-1.67,1.67-1.34,3.7-1.73,5-6.82,9.81-6.96,7.35-7.31,17.2-8.7,26.56-11.23,7.19-.21,14.42-.12,21.19-3.1,8.36,1.03,16.73,2.06,25.09,3.1,7.99-1.67,13.2,5.45,20.43,6.63,2.42.39,5.16.87,7.66,1.71,7.91,6.96,21.11,5.18,26.66,16.07,3.12,2.37,7.29,3.22,9.71,6.65,2.5-.16,3.97,1.24,5.02,3.32.54.48,1.09.99,1.63,1.49,8.7,4.56,13.47,12.62,18.26,20.63,1.74,2.95,3.01,6.18,4.5,9.31,1.88,4.9,3.74,9.83,5.62,14.73,7.13,9,11.88,19.31,16.29,29.82,2.95,6.92,5.95,13.84,6.26,21.52,5.23,9.81,4.73,21.07,7.97,31.39.14,4.01.25,8.03.39,12.04,3.14,2.29,2.75,5.8,2.83,8.94.19,7.33.04,14.66.02,21.99.68,6.59.81,13.2-.12,19.81Z"/>
</svg>