<svg width="25px" height="26px" viewBox="0 0 25 26" version="1.1" xmlns="http://www.w3.org/2000/svg" xmlns:xlink="http://www.w3.org/1999/xlink">
                            <g id="MockUps" stroke="none" stroke-width="1" fill="none" fill-rule="evenodd">
                                <g id="2.2-Meditations" transform="translate(-537.000000, -865.000000)" fill="#FFF">
                                    <g id="Group-8" transform="translate(522.000000, 859.000000)">
                                        <g id="Group-4" transform="translate(0.000000, 6.000000)">
                                            <path d="M39.832112,0.118450994 C39.7267224,0.0280449072 39.5882454,-0.0109537968 39.4467047,0.00263666061 L24.2509988,1.8999827 C24.0065194,1.93011806 23.8220877,2.13102048 23.8220877,2.36855804 L23.8220877,19.2024077 C22.9275018,18.1659876 21.5053553,17.4894192 19.9018406,17.4894192 C17.199701,17.4894192 15,19.398583 15,21.7455959 C15,24.0908362 17.199701,26 19.9018406,26 C22.6039803,26 24.8036813,24.0908362 24.8036813,21.7455959 C24.8036813,21.6350996 24.7938776,21.5263759 24.7846866,21.4206067 C24.7914267,21.3904714 24.8036813,21.3626996 24.8036813,21.3302006 L24.8036813,7.61979262 L39.0184064,5.8447607 L39.0184064,14.4752921 C38.1232078,13.438872 36.701674,12.7623035 35.0981594,12.7623035 C32.3960197,12.7623035 30.1963187,14.6714674 30.1963187,17.0184803 C30.1963187,19.3637205 32.3960197,21.2728844 35.0981594,21.2728844 C37.7764025,21.2728844 39.9564962,19.398583 39.9950982,17.0811146 C39.9950982,17.0740239 40,17.0692968 40,17.062797 L40,0.473575556 C40,0.337670981 39.9375015,0.208266191 39.832112,0.118450994 Z" id="icon-listen"></path>
                                        </g>
                                    </g>
                                </g>
                            </g>
                        </svg>