<svg width="33px" height="26px" viewBox="0 0 33 26" version="1.1" xmlns="http://www.w3.org/2000/svg" xmlns:xlink="http://www.w3.org/1999/xlink">
                            <g id="MockUps" stroke="none" stroke-width="1" fill="none" fill-rule="evenodd">
                                <g id="2.2-Meditations" transform="translate(-643.000000, -865.000000)" fill="#FFF">
                                    <g id="Group-8" transform="translate(522.000000, 859.000000)">
                                        <g id="Group-5" transform="translate(105.000000, 6.000000)">
                                            <path d="M31.4998289,11 C29.5700238,11 28,9.65426535 28,8.00014663 C28,6.3457933 29.5700238,5 31.4998289,5 C33.4297025,5 35,6.3457933 35,8.00014663 C35,9.65426535 33.4297025,11 31.4998289,11 Z M31.4998289,6.75951359 C30.7019873,6.75951359 30.0527659,7.31604774 30.0527659,8.00014663 C30.0527659,8.68401091 30.7019873,9.24048641 31.4998289,9.24048641 C32.2979443,9.24048641 32.9472341,8.68401091 32.9472341,8.00014663 C32.9472341,7.31604774 32.2979443,6.75951359 31.4998289,6.75951359 Z M47.7950488,0 C48.4594316,0 49,0.496592024 49,1.10692594 L49,24.8930741 C49,25.503408 48.4594316,26 47.7950488,26 L17.2049512,26 C16.5405684,26 16,25.503408 16,24.8930741 L16,1.10692594 C16,0.496592024 16.5405684,0 17.2049512,0 L47.7950488,0 Z M47.0664063,1.77629197 L17.9335938,1.77629197 L17.9335938,18.6868875 L24.0143594,13.1008638 C24.2064297,12.9243596 24.4617285,12.8272556 24.7333984,12.8272556 C25.0053262,12.8272556 25.2608828,12.9245964 25.4529531,13.1013375 L30.9468086,18.1480198 L39.5475625,10.2469547 C39.9438203,9.88293325 40.5886094,9.88269641 40.985125,10.2463034 L47.0664063,15.8330377 L47.0664063,1.77629197 Z M17.9335938,24.223708 L47.0666641,24.223708 L47.0666641,18.3450698 L40.2666016,12.0982062 L31.6656543,19.9994489 C31.4737773,20.1759531 31.2182207,20.2732939 30.9468086,20.2732939 C30.6749453,20.2732939 30.4193887,20.1757163 30.2269961,19.9990344 L24.7333984,14.9522929 L17.9335938,21.1989197 L17.9335938,24.223708 Z" id="icon-observe"></path>
                                        </g>
                                    </g>
                                </g>
                            </g>
                        </svg>